<mxfile host="app.diagrams.net" modified="2022-06-10T17:23:42.339Z" agent="5.0 (Windows NT 10.0; Win64; x64) AppleWebKit/537.36 (KHTML, like Gecko) Chrome/102.0.5005.63 Safari/537.36 Edg/102.0.1245.33" etag="UB4JVNlt1nwBZlnb7rir" version="19.0.3" type="github">
  <diagram id="kgpKYQtTHZ0yAKxKKP6v" name="Page-1">
    <mxGraphModel dx="1573" dy="638" grid="1" gridSize="10" guides="1" tooltips="1" connect="1" arrows="1" fold="1" page="1" pageScale="1" pageWidth="850" pageHeight="1100" math="0" shadow="0">
      <root>
        <mxCell id="0" />
        <mxCell id="1" parent="0" />
        <mxCell id="1vv4GguBpcIEgMkVIJag-27" value="" style="rounded=0;whiteSpace=wrap;html=1;fillColor=#f8cecc;strokeColor=#b85450;opacity=40;" vertex="1" parent="1">
          <mxGeometry y="550" width="1070" height="90" as="geometry" />
        </mxCell>
        <mxCell id="1vv4GguBpcIEgMkVIJag-26" value="" style="rounded=0;whiteSpace=wrap;html=1;fillColor=#d5e8d4;strokeColor=#82b366;opacity=50;" vertex="1" parent="1">
          <mxGeometry y="250" width="1070" height="300" as="geometry" />
        </mxCell>
        <mxCell id="E5ol-iJEVNm1mvob5SmV-3" value="Login page" style="shape=umlLifeline;perimeter=lifelinePerimeter;container=1;collapsible=0;recursiveResize=0;rounded=0;shadow=0;strokeWidth=1;" parent="1" vertex="1">
          <mxGeometry x="220" y="80" width="115" height="580" as="geometry" />
        </mxCell>
        <mxCell id="1vv4GguBpcIEgMkVIJag-22" value="" style="points=[];perimeter=orthogonalPerimeter;rounded=0;shadow=0;strokeWidth=1;" vertex="1" parent="E5ol-iJEVNm1mvob5SmV-3">
          <mxGeometry x="52.5" y="70" width="10" height="70" as="geometry" />
        </mxCell>
        <mxCell id="pe-_lfKDnjAAdqRKlTJw-1" value="Database" style="shape=umlLifeline;perimeter=lifelinePerimeter;container=1;collapsible=0;recursiveResize=0;rounded=0;shadow=0;strokeWidth=1;" parent="1" vertex="1">
          <mxGeometry x="440" y="80" width="100" height="590" as="geometry" />
        </mxCell>
        <mxCell id="1vv4GguBpcIEgMkVIJag-6" value="Valide données Utilisateur" style="curved=1;endArrow=classic;html=1;rounded=0;exitX=0.5;exitY=0.213;exitDx=0;exitDy=0;exitPerimeter=0;entryX=0.519;entryY=0.25;entryDx=0;entryDy=0;entryPerimeter=0;verticalAlign=bottom;" edge="1" parent="pe-_lfKDnjAAdqRKlTJw-1">
          <mxGeometry x="0.003" y="32" width="50" height="50" relative="1" as="geometry">
            <mxPoint x="50" y="135.01999999999998" as="sourcePoint" />
            <mxPoint x="51.90000000000009" y="155" as="targetPoint" />
            <Array as="points">
              <mxPoint x="80" y="130" />
              <mxPoint x="90" y="143" />
              <mxPoint x="80" y="160" />
            </Array>
            <mxPoint x="3" y="-32" as="offset" />
          </mxGeometry>
        </mxCell>
        <mxCell id="pe-_lfKDnjAAdqRKlTJw-7" value="Valide données Utilisateur" style="curved=1;endArrow=classic;html=1;rounded=0;exitX=0.5;exitY=0.213;exitDx=0;exitDy=0;exitPerimeter=0;entryX=0.519;entryY=0.25;entryDx=0;entryDy=0;entryPerimeter=0;verticalAlign=bottom;" parent="pe-_lfKDnjAAdqRKlTJw-1" edge="1">
          <mxGeometry x="-0.0528" y="28" width="50" height="50" relative="1" as="geometry">
            <mxPoint x="50" y="395.02" as="sourcePoint" />
            <mxPoint x="51.90000000000009" y="415" as="targetPoint" />
            <Array as="points">
              <mxPoint x="81" y="390" />
              <mxPoint x="90" y="400" />
              <mxPoint x="80" y="419" />
            </Array>
            <mxPoint x="1" y="-23" as="offset" />
          </mxGeometry>
        </mxCell>
        <mxCell id="pe-_lfKDnjAAdqRKlTJw-15" value="alt" style="shape=umlFrame;whiteSpace=wrap;html=1;width=40;height=20;fillColor=#dae8fc;strokeColor=#6c8ebf;gradientColor=none;swimlaneFillColor=none;" parent="1" vertex="1">
          <mxGeometry y="250" width="1070" height="390" as="geometry" />
        </mxCell>
        <mxCell id="pe-_lfKDnjAAdqRKlTJw-20" value="Utilisateur" style="shape=umlLifeline;participant=umlActor;perimeter=lifelinePerimeter;whiteSpace=wrap;html=1;container=1;collapsible=0;recursiveResize=0;verticalAlign=top;spacingTop=36;outlineConnect=0;align=center;labelBackgroundColor=default;size=40;" parent="1" vertex="1">
          <mxGeometry x="40" y="80" width="20" height="580" as="geometry" />
        </mxCell>
        <mxCell id="1vv4GguBpcIEgMkVIJag-24" value="Email non valide (message)" style="endArrow=none;html=1;rounded=0;verticalAlign=bottom;startArrow=classic;startFill=1;endFill=0;dashed=1;" edge="1" parent="pe-_lfKDnjAAdqRKlTJw-20" source="E5ol-iJEVNm1mvob5SmV-3">
          <mxGeometry x="0.0344" width="50" height="50" relative="1" as="geometry">
            <mxPoint x="-60" y="530" as="sourcePoint" />
            <mxPoint x="450.8699999999999" y="530" as="targetPoint" />
            <mxPoint x="-1" as="offset" />
          </mxGeometry>
        </mxCell>
        <mxCell id="pe-_lfKDnjAAdqRKlTJw-27" value="" style="endArrow=none;dashed=1;html=1;rounded=0;entryX=1.003;entryY=0.765;entryDx=0;entryDy=0;entryPerimeter=0;exitX=0.001;exitY=0.769;exitDx=0;exitDy=0;exitPerimeter=0;" parent="1" source="pe-_lfKDnjAAdqRKlTJw-15" target="pe-_lfKDnjAAdqRKlTJw-15" edge="1">
          <mxGeometry width="50" height="50" relative="1" as="geometry">
            <mxPoint x="1140" y="530" as="sourcePoint" />
            <mxPoint x="1150" y="430" as="targetPoint" />
          </mxGeometry>
        </mxCell>
        <mxCell id="pe-_lfKDnjAAdqRKlTJw-29" value="[email valide]" style="text;html=1;align=center;verticalAlign=middle;resizable=0;points=[];autosize=1;strokeColor=none;fillColor=none;" parent="1" vertex="1">
          <mxGeometry x="100" y="260" width="90" height="20" as="geometry" />
        </mxCell>
        <mxCell id="1vv4GguBpcIEgMkVIJag-1" value="Boîte mail utilisateur" style="shape=umlLifeline;perimeter=lifelinePerimeter;container=1;collapsible=0;recursiveResize=0;rounded=0;shadow=0;strokeWidth=1;" vertex="1" parent="1">
          <mxGeometry x="790" y="80" width="120" height="580" as="geometry" />
        </mxCell>
        <mxCell id="1vv4GguBpcIEgMkVIJag-9" value="Envoi du lien de réinitialisation" style="endArrow=classic;html=1;rounded=0;verticalAlign=bottom;" edge="1" parent="1vv4GguBpcIEgMkVIJag-1" target="1vv4GguBpcIEgMkVIJag-1">
          <mxGeometry width="50" height="50" relative="1" as="geometry">
            <mxPoint x="-104" y="210" as="sourcePoint" />
            <mxPoint x="95.47999999999979" y="210" as="targetPoint" />
          </mxGeometry>
        </mxCell>
        <mxCell id="1vv4GguBpcIEgMkVIJag-10" value="Récupération du lien de réinitialisation" style="endArrow=none;html=1;rounded=0;verticalAlign=bottom;startArrow=classic;startFill=1;endFill=0;dashed=1;" edge="1" parent="1vv4GguBpcIEgMkVIJag-1" source="pe-_lfKDnjAAdqRKlTJw-20">
          <mxGeometry x="0.0344" width="50" height="50" relative="1" as="geometry">
            <mxPoint x="-162.9996551724139" y="249.99999999999994" as="sourcePoint" />
            <mxPoint x="49.69000000000051" y="249.99999999999994" as="targetPoint" />
            <mxPoint x="-1" as="offset" />
          </mxGeometry>
        </mxCell>
        <mxCell id="1vv4GguBpcIEgMkVIJag-17" value="Mise à jour du mot de passe" style="endArrow=none;html=1;rounded=0;verticalAlign=bottom;startArrow=classic;startFill=1;endFill=0;dashed=1;" edge="1" parent="1vv4GguBpcIEgMkVIJag-1" source="pe-_lfKDnjAAdqRKlTJw-1">
          <mxGeometry x="0.0344" width="50" height="50" relative="1" as="geometry">
            <mxPoint x="-589.9964705882353" y="360" as="sourcePoint" />
            <mxPoint x="210.37000000000012" y="360" as="targetPoint" />
            <mxPoint x="-1" as="offset" />
          </mxGeometry>
        </mxCell>
        <mxCell id="1vv4GguBpcIEgMkVIJag-18" value="" style="points=[];perimeter=orthogonalPerimeter;rounded=0;shadow=0;strokeWidth=1;" vertex="1" parent="1vv4GguBpcIEgMkVIJag-1">
          <mxGeometry x="55" y="210" width="10" height="40" as="geometry" />
        </mxCell>
        <mxCell id="1vv4GguBpcIEgMkVIJag-3" value="Récupération Mot de pass" style="endArrow=classic;html=1;rounded=0;verticalAlign=bottom;" edge="1" parent="1">
          <mxGeometry width="50" height="50" relative="1" as="geometry">
            <mxPoint x="50" y="160" as="sourcePoint" />
            <mxPoint x="277" y="160" as="targetPoint" />
          </mxGeometry>
        </mxCell>
        <mxCell id="1vv4GguBpcIEgMkVIJag-4" value="Envoie de l&#39;email" style="endArrow=classic;html=1;rounded=0;verticalAlign=bottom;entryX=0.513;entryY=0.217;entryDx=0;entryDy=0;entryPerimeter=0;" edge="1" parent="1" source="E5ol-iJEVNm1mvob5SmV-3" target="pe-_lfKDnjAAdqRKlTJw-1">
          <mxGeometry width="50" height="50" relative="1" as="geometry">
            <mxPoint x="335" y="190" as="sourcePoint" />
            <mxPoint x="562" y="190" as="targetPoint" />
          </mxGeometry>
        </mxCell>
        <mxCell id="1vv4GguBpcIEgMkVIJag-5" value="Entrer email" style="endArrow=classic;html=1;rounded=0;verticalAlign=bottom;" edge="1" parent="1">
          <mxGeometry width="50" height="50" relative="1" as="geometry">
            <mxPoint x="50" y="190" as="sourcePoint" />
            <mxPoint x="277" y="190" as="targetPoint" />
          </mxGeometry>
        </mxCell>
        <mxCell id="1vv4GguBpcIEgMkVIJag-7" value="Emailling" style="shape=umlLifeline;perimeter=lifelinePerimeter;container=1;collapsible=0;recursiveResize=0;rounded=0;shadow=0;strokeWidth=1;" vertex="1" parent="1">
          <mxGeometry x="630" y="80" width="100" height="580" as="geometry" />
        </mxCell>
        <mxCell id="E5ol-iJEVNm1mvob5SmV-4" value="" style="points=[];perimeter=orthogonalPerimeter;rounded=0;shadow=0;strokeWidth=1;" parent="1vv4GguBpcIEgMkVIJag-7" vertex="1">
          <mxGeometry x="45" y="190" width="10" height="30" as="geometry" />
        </mxCell>
        <mxCell id="1vv4GguBpcIEgMkVIJag-12" value="Reset PW page" style="shape=umlLifeline;perimeter=lifelinePerimeter;container=1;collapsible=0;recursiveResize=0;rounded=0;shadow=0;strokeWidth=1;" vertex="1" parent="1">
          <mxGeometry x="960" y="80" width="100" height="540" as="geometry" />
        </mxCell>
        <mxCell id="1vv4GguBpcIEgMkVIJag-19" value="" style="points=[];perimeter=orthogonalPerimeter;rounded=0;shadow=0;strokeWidth=1;" vertex="1" parent="1vv4GguBpcIEgMkVIJag-12">
          <mxGeometry x="45" y="280" width="10" height="160" as="geometry" />
        </mxCell>
        <mxCell id="1vv4GguBpcIEgMkVIJag-15" value="Activation du lien" style="endArrow=classic;html=1;rounded=0;verticalAlign=bottom;entryX=0.496;entryY=0.529;entryDx=0;entryDy=0;entryPerimeter=0;" edge="1" parent="1" target="1vv4GguBpcIEgMkVIJag-12">
          <mxGeometry width="50" height="50" relative="1" as="geometry">
            <mxPoint x="47.75" y="370" as="sourcePoint" />
            <mxPoint x="262.25" y="370" as="targetPoint" />
          </mxGeometry>
        </mxCell>
        <mxCell id="1vv4GguBpcIEgMkVIJag-16" value="Entrer nouveau mot de passe X2" style="endArrow=classic;html=1;rounded=0;verticalAlign=bottom;entryX=0.496;entryY=0.529;entryDx=0;entryDy=0;entryPerimeter=0;" edge="1" parent="1">
          <mxGeometry width="50" height="50" relative="1" as="geometry">
            <mxPoint x="50" y="404.34" as="sourcePoint" />
            <mxPoint x="1011.8499999999995" y="399.99999999999994" as="targetPoint" />
          </mxGeometry>
        </mxCell>
        <mxCell id="1vv4GguBpcIEgMkVIJag-8" value="Envoie de l&#39;email" style="endArrow=classic;html=1;rounded=0;verticalAlign=bottom;" edge="1" parent="1" source="pe-_lfKDnjAAdqRKlTJw-1">
          <mxGeometry width="50" height="50" relative="1" as="geometry">
            <mxPoint x="490.00352941176465" y="270" as="sourcePoint" />
            <mxPoint x="680" y="280" as="targetPoint" />
          </mxGeometry>
        </mxCell>
        <mxCell id="1vv4GguBpcIEgMkVIJag-20" value="Mot de passe modifié (message)" style="endArrow=classic;html=1;rounded=0;verticalAlign=bottom;" edge="1" parent="1" source="pe-_lfKDnjAAdqRKlTJw-1">
          <mxGeometry width="50" height="50" relative="1" as="geometry">
            <mxPoint x="490" y="520" as="sourcePoint" />
            <mxPoint x="1003" y="509" as="targetPoint" />
          </mxGeometry>
        </mxCell>
        <mxCell id="1vv4GguBpcIEgMkVIJag-21" value="[email non valide]" style="text;html=1;align=center;verticalAlign=middle;resizable=0;points=[];autosize=1;strokeColor=none;fillColor=none;" vertex="1" parent="1">
          <mxGeometry x="100" y="560" width="110" height="20" as="geometry" />
        </mxCell>
      </root>
    </mxGraphModel>
  </diagram>
</mxfile>
